# xmcd CD database file generated by OrangeCD 5.2
#
# Track frame offsets:
#	150
#	21730
#	42189
#	60100
#	78831
#	101087
#	131462
#	155746
#	177160
#	197425
#	217534
#	238995
#	257476
#	277839
#	297505
#	322357
#	333708
#	345690
#
# Disc length: 4791 seconds
#
# Revision: 0
# Processed by: cddbd v1.5.1PL2 Copyright (c) Steve Scherf et al.
# Submitted via: OrangeCD 5.2
#
DISCID=0912b512
DTITLE=Various Artist - Rhythm and Blues Classics Volume 2
DYEAR=2006
DGENRE=Dance R&B
TTITLE0=Babyface and Des'ree - Fire
TTITLE1=Sade - Hang Onto Your Love
TTITLE2=Huey Lewis and The News - Power Of Love
TTITLE3=Kenny G - Don't Know Why (With David Benoit)
TTITLE4=Luther Vandross - Always And Forever
TTITLE5=Luther Vandross - Power Of Love (Love Power)
TTITLE6=Patti LaBelle - Stay In My Corner
TTITLE7=Patti LaBelle - Own My Own
TTITLE8=Ruby Turner and The Temptations - Just My Imagination
TTITLE9=Rod Stewart - Hot Legs
TTITLE10=Rod Stewart - Havin' A Party
TTITLE11=Smokey Robinson - One Heartbeat
TTITLE12=Smokey Robinson - Cruisin'
TTITLE13=Tina Turner - I Don't What To Loose You
TTITLE14=Tina Turner - The Best
TTITLE15=Jr. Walker and The All Stars - What Does It Take (To Win Your Love)
TTITLE16=Hugh Masekela - Grazing In The Grass
TTITLE17=Young Holt Unlimited - Soulful Strut
EXTD=
EXTT0=
EXTT1=
EXTT2=
EXTT3=
EXTT4=
EXTT5=
EXTT6=
EXTT7=
EXTT8=
EXTT9=
EXTT10=
EXTT11=
EXTT12=
EXTT13=
EXTT14=
EXTT15=
EXTT16=
EXTT17=
PLAYORDER=
